<svg width="164" height="211" viewBox="0 0 164 211" fill="none" xmlns="http://www.w3.org/2000/svg">
<circle cx="1.5437" cy="116.981" r="1.5437" transform="rotate(-90 1.5437 116.981)" fill="#3465A6"/>
<circle cx="25.6634" cy="116.788" r="1.35074" transform="rotate(-90 25.6634 116.788)" fill="#3465A6"/>
<circle cx="49.3979" cy="116.981" r="1.15778" transform="rotate(-90 49.3979 116.981)" fill="#3465A6"/>
<circle cx="72.7467" cy="116.788" r="0.964815" transform="rotate(-90 72.7467 116.788)" fill="#3465A6"/>
<circle cx="95.7092" cy="116.981" r="0.771852" transform="rotate(-90 95.7092 116.981)" fill="#3465A6"/>
<circle cx="140.477" cy="116.981" r="0.385926" transform="rotate(-90 140.477 116.981)" fill="#3465A6"/>
<circle cx="118.286" cy="116.788" r="0.578889" transform="rotate(-90 118.286 116.788)" fill="#3465A6"/>
<circle cx="163.052" cy="116.788" r="0.192963" transform="rotate(-90 163.052 116.788)" fill="#3465A6"/>
<circle cx="1.5437" cy="140.068" r="1.5437" transform="rotate(-90 1.5437 140.068)" fill="#3465A6"/>
<circle cx="25.6634" cy="139.875" r="1.35074" transform="rotate(-90 25.6634 139.875)" fill="#3465A6"/>
<circle cx="49.3979" cy="140.068" r="1.15778" transform="rotate(-90 49.3979 140.068)" fill="#3465A6"/>
<circle cx="72.7467" cy="139.875" r="0.964815" transform="rotate(-90 72.7467 139.875)" fill="#3465A6"/>
<circle cx="95.7092" cy="140.068" r="0.771852" transform="rotate(-90 95.7092 140.068)" fill="#3465A6"/>
<circle cx="140.477" cy="140.068" r="0.385926" transform="rotate(-90 140.477 140.068)" fill="#3465A6"/>
<circle cx="118.286" cy="139.875" r="0.578889" transform="rotate(-90 118.286 139.875)" fill="#3465A6"/>
<circle cx="163.052" cy="139.875" r="0.192963" transform="rotate(-90 163.052 139.875)" fill="#3465A6"/>
<circle cx="1.5437" cy="163.156" r="1.5437" transform="rotate(-90 1.5437 163.156)" fill="#3465A6"/>
<circle cx="25.6634" cy="162.963" r="1.35074" transform="rotate(-90 25.6634 162.963)" fill="#3465A6"/>
<circle cx="49.3979" cy="163.156" r="1.15778" transform="rotate(-90 49.3979 163.156)" fill="#3465A6"/>
<circle cx="72.7467" cy="162.963" r="0.964815" transform="rotate(-90 72.7467 162.963)" fill="#3465A6"/>
<circle cx="95.7092" cy="163.156" r="0.771852" transform="rotate(-90 95.7092 163.156)" fill="#3465A6"/>
<circle cx="140.477" cy="163.156" r="0.385926" transform="rotate(-90 140.477 163.156)" fill="#3465A6"/>
<circle cx="118.286" cy="162.963" r="0.578889" transform="rotate(-90 118.286 162.963)" fill="#3465A6"/>
<circle cx="163.052" cy="162.963" r="0.192963" transform="rotate(-90 163.052 162.963)" fill="#3465A6"/>
<circle cx="1.5437" cy="186.243" r="1.5437" transform="rotate(-90 1.5437 186.243)" fill="#3465A6"/>
<circle cx="25.6634" cy="186.05" r="1.35074" transform="rotate(-90 25.6634 186.05)" fill="#3465A6"/>
<circle cx="49.3979" cy="186.243" r="1.15778" transform="rotate(-90 49.3979 186.243)" fill="#3465A6"/>
<circle cx="72.7467" cy="186.05" r="0.964815" transform="rotate(-90 72.7467 186.05)" fill="#3465A6"/>
<circle cx="95.7092" cy="186.243" r="0.771852" transform="rotate(-90 95.7092 186.243)" fill="#3465A6"/>
<circle cx="140.477" cy="186.243" r="0.385926" transform="rotate(-90 140.477 186.243)" fill="#3465A6"/>
<circle cx="118.286" cy="186.05" r="0.578889" transform="rotate(-90 118.286 186.05)" fill="#3465A6"/>
<circle cx="163.052" cy="186.05" r="0.192963" transform="rotate(-90 163.052 186.05)" fill="#3465A6"/>
<circle cx="1.5437" cy="209.33" r="1.5437" transform="rotate(-90 1.5437 209.33)" fill="#3465A6"/>
<circle cx="25.6634" cy="209.138" r="1.35074" transform="rotate(-90 25.6634 209.138)" fill="#3465A6"/>
<circle cx="49.3979" cy="209.331" r="1.15778" transform="rotate(-90 49.3979 209.331)" fill="#3465A6"/>
<circle cx="72.7467" cy="209.138" r="0.964815" transform="rotate(-90 72.7467 209.138)" fill="#3465A6"/>
<circle cx="95.7092" cy="209.331" r="0.771852" transform="rotate(-90 95.7092 209.331)" fill="#3465A6"/>
<circle cx="140.477" cy="209.33" r="0.385926" transform="rotate(-90 140.477 209.33)" fill="#3465A6"/>
<circle cx="118.286" cy="209.137" r="0.578889" transform="rotate(-90 118.286 209.137)" fill="#3465A6"/>
<circle cx="163.052" cy="209.138" r="0.192963" transform="rotate(-90 163.052 209.138)" fill="#3465A6"/>
<circle cx="1.54419" cy="93.8933" r="1.5437" transform="rotate(-90 1.54419 93.8933)" fill="#3465A6"/>
<circle cx="25.6639" cy="94.0863" r="1.35074" transform="rotate(-90 25.6639 94.0863)" fill="#3465A6"/>
<circle cx="49.3984" cy="93.8933" r="1.15778" transform="rotate(-90 49.3984 93.8933)" fill="#3465A6"/>
<circle cx="72.7472" cy="94.0862" r="0.964815" transform="rotate(-90 72.7472 94.0862)" fill="#3465A6"/>
<circle cx="95.7097" cy="93.893" r="0.771852" transform="rotate(-90 95.7097 93.893)" fill="#3465A6"/>
<circle cx="140.477" cy="93.8929" r="0.385926" transform="rotate(-90 140.477 93.8929)" fill="#3465A6"/>
<circle cx="118.286" cy="94.0859" r="0.578889" transform="rotate(-90 118.286 94.0859)" fill="#3465A6"/>
<circle cx="163.052" cy="94.0859" r="0.192963" transform="rotate(-90 163.052 94.0859)" fill="#3465A6"/>
<circle cx="1.54419" cy="70.8059" r="1.5437" transform="rotate(-90 1.54419 70.8059)" fill="#3465A6"/>
<circle cx="25.6639" cy="70.6132" r="1.35074" transform="rotate(-90 25.6639 70.6132)" fill="#3465A6"/>
<circle cx="49.3984" cy="70.8061" r="1.15778" transform="rotate(-90 49.3984 70.8061)" fill="#3465A6"/>
<circle cx="72.7472" cy="70.6129" r="0.964815" transform="rotate(-90 72.7472 70.6129)" fill="#3465A6"/>
<circle cx="95.7097" cy="70.8058" r="0.771852" transform="rotate(-90 95.7097 70.8058)" fill="#3465A6"/>
<circle cx="140.477" cy="70.8058" r="0.385926" transform="rotate(-90 140.477 70.8058)" fill="#3465A6"/>
<circle cx="118.286" cy="70.6128" r="0.578889" transform="rotate(-90 118.286 70.6128)" fill="#3465A6"/>
<circle cx="163.052" cy="70.613" r="0.192963" transform="rotate(-90 163.052 70.613)" fill="#3465A6"/>
<circle cx="1.5437" cy="47.7185" r="1.5437" transform="rotate(-90 1.5437 47.7185)" fill="#3465A6"/>
<circle cx="25.6634" cy="47.9115" r="1.35074" transform="rotate(-90 25.6634 47.9115)" fill="#3465A6"/>
<circle cx="49.3979" cy="47.7187" r="1.15778" transform="rotate(-90 49.3979 47.7187)" fill="#3465A6"/>
<circle cx="72.7467" cy="47.9117" r="0.964815" transform="rotate(-90 72.7467 47.9117)" fill="#3465A6"/>
<circle cx="95.7092" cy="47.7184" r="0.771852" transform="rotate(-90 95.7092 47.7184)" fill="#3465A6"/>
<circle cx="140.477" cy="47.7181" r="0.385926" transform="rotate(-90 140.477 47.7181)" fill="#3465A6"/>
<circle cx="118.286" cy="47.9114" r="0.578889" transform="rotate(-90 118.286 47.9114)" fill="#3465A6"/>
<circle cx="163.052" cy="47.9111" r="0.192963" transform="rotate(-90 163.052 47.9111)" fill="#3465A6"/>
<circle cx="1.5437" cy="24.6311" r="1.5437" transform="rotate(-90 1.5437 24.6311)" fill="#3465A6"/>
<circle cx="25.6634" cy="24.4384" r="1.35074" transform="rotate(-90 25.6634 24.4384)" fill="#3465A6"/>
<circle cx="49.3979" cy="24.6313" r="1.15778" transform="rotate(-90 49.3979 24.6313)" fill="#3465A6"/>
<circle cx="72.7467" cy="24.438" r="0.964815" transform="rotate(-90 72.7467 24.438)" fill="#3465A6"/>
<circle cx="95.7092" cy="24.631" r="0.771852" transform="rotate(-90 95.7092 24.631)" fill="#3465A6"/>
<circle cx="140.477" cy="24.631" r="0.385926" transform="rotate(-90 140.477 24.631)" fill="#3465A6"/>
<circle cx="118.286" cy="24.438" r="0.578889" transform="rotate(-90 118.286 24.438)" fill="#3465A6"/>
<circle cx="163.052" cy="24.4384" r="0.192963" transform="rotate(-90 163.052 24.4384)" fill="#3465A6"/>
<circle cx="1.54419" cy="1.5437" r="1.5437" transform="rotate(-90 1.54419 1.5437)" fill="#3465A6"/>
<circle cx="25.6639" cy="1.35095" r="1.35074" transform="rotate(-90 25.6639 1.35095)" fill="#3465A6"/>
<circle cx="49.3984" cy="1.54391" r="1.15778" transform="rotate(-90 49.3984 1.54391)" fill="#3465A6"/>
<circle cx="72.7472" cy="1.35089" r="0.964815" transform="rotate(-90 72.7472 1.35089)" fill="#3465A6"/>
<circle cx="95.7097" cy="1.54385" r="0.771852" transform="rotate(-90 95.7097 1.54385)" fill="#3465A6"/>
<circle cx="140.477" cy="1.54355" r="0.385926" transform="rotate(-90 140.477 1.54355)" fill="#3465A6"/>
<circle cx="118.286" cy="1.35058" r="0.578889" transform="rotate(-90 118.286 1.35058)" fill="#3465A6"/>
<circle cx="163.052" cy="1.3508" r="0.192963" transform="rotate(-90 163.052 1.3508)" fill="#3465A6"/>
</svg>
