<svg width="54" height="74" viewBox="0 0 54 74" fill="none" xmlns="http://www.w3.org/2000/svg">
<path d="M27.8038 11.3846H42.4015C43.0858 11.3846 43.6411 10.9595 43.6411 10.4359C43.6411 9.91216 43.0858 9.48714 42.4015 9.48714H27.8038C27.1196 9.48714 26.5642 9.91216 26.5642 10.4359C26.5642 10.9595 27.1196 11.3846 27.8038 11.3846Z" fill="white"/>
<path d="M27.8038 20.8718H42.4015C43.0858 20.8718 43.6411 20.4468 43.6411 19.9231C43.6411 19.3994 43.0858 18.9744 42.4015 18.9744H27.8038C27.1196 18.9744 26.5642 19.3994 26.5642 19.9231C26.5642 20.4468 27.1196 20.8718 27.8038 20.8718Z" fill="white"/>
<path d="M44.2952 28.4615H10.7302C10.044 28.4615 9.48706 28.8865 9.48706 29.4102C9.48706 29.9339 10.044 30.359 10.7302 30.359H44.2952C44.9814 30.359 45.5383 29.9339 45.5383 29.4102C45.5383 28.8865 44.9814 28.4615 44.2952 28.4615Z" fill="white"/>
<path d="M44.2952 37.9487H10.7302C10.044 37.9487 9.48706 38.3738 9.48706 38.8975C9.48706 39.4212 10.044 39.8462 10.7302 39.8462H44.2952C44.9814 39.8462 45.5383 39.4212 45.5383 38.8975C45.5383 38.3738 44.9814 37.9487 44.2952 37.9487Z" fill="white"/>
<path d="M44.2952 49.3333H10.7302C10.044 49.3333 9.48706 49.7583 9.48706 50.282C9.48706 50.8057 10.044 51.2307 10.7302 51.2307H44.2952C44.9814 51.2307 45.5383 50.8057 45.5383 50.282C45.5383 49.7583 44.9814 49.3333 44.2952 49.3333Z" fill="white"/>
<path d="M32.8888 58.8205H10.752C10.0538 58.8205 9.48706 59.2456 9.48706 59.7692C9.48706 60.2929 10.0538 60.718 10.752 60.718H32.8888C33.587 60.718 34.1537 60.2929 34.1537 59.7692C34.1537 59.2456 33.587 58.8205 32.8888 58.8205Z" fill="white"/>
<path d="M21.5241 24.6667C22.2115 24.6667 22.7693 24.1275 22.7693 23.4632V8.79318C22.7693 8.12888 22.2115 7.58974 21.5241 7.58974H8.83508C8.14771 7.58974 7.58984 8.12888 7.58984 8.79318V23.4632C7.58984 24.1275 8.14771 24.6667 8.83508 24.6667H21.5241ZM10.0803 9.99663H20.278V22.2598H10.0803V9.99663Z" fill="white"/>
<path d="M49.8159 0H3.31236C1.4862 0 0 1.49807 0 3.34065V70.6594C0 72.5011 1.48539 74 3.31236 74H38.7929H38.7937C38.9249 74 39.0497 73.9737 39.1679 73.9342C39.1866 73.9285 39.2046 73.9244 39.2225 73.917C39.3431 73.8709 39.4524 73.8051 39.551 73.7254C39.56 73.718 39.5706 73.7163 39.5796 73.7089L52.6929 62.5564C52.7059 62.5458 52.7149 62.5326 52.7271 62.5211C52.7597 62.4915 52.7891 62.4594 52.8184 62.4265C52.8437 62.3978 52.8681 62.369 52.891 62.3386C52.9146 62.3057 52.935 62.272 52.9554 62.2366C52.9758 62.2021 52.9953 62.1684 53.0116 62.1322C53.0279 62.096 53.041 62.059 53.0548 62.022C53.0679 61.9842 53.0809 61.9464 53.0899 61.9069C53.0989 61.8699 53.1046 61.8312 53.1103 61.7934C53.1168 61.7507 53.1217 61.7079 53.1233 61.6643C53.1241 61.6471 53.1282 61.6315 53.1282 61.615V3.34065C53.1274 1.49807 51.642 0 49.8159 0ZM2.44656 70.6594V3.34065C2.44656 2.85883 2.83544 2.46664 3.31236 2.46664H49.815C50.2928 2.46664 50.6816 2.85883 50.6816 3.34065V60.3809H38.7937C38.1186 60.3809 37.5708 60.9334 37.5708 61.6142V71.5325H3.31236C2.83544 71.5325 2.44656 71.1404 2.44656 70.6594Z" fill="white"/>
</svg>
