<svg width="28" height="39" viewBox="0 0 28 39" fill="none" xmlns="http://www.w3.org/2000/svg">
<path d="M14.6533 6H22.3467C22.7073 6 23 5.776 23 5.5C23 5.224 22.7073 5 22.3467 5H14.6533C14.2927 5 14 5.224 14 5.5C14 5.776 14.2927 6 14.6533 6Z" fill="white"/>
<path d="M14.6533 11H22.3467C22.7073 11 23 10.776 23 10.5C23 10.224 22.7073 10 22.3467 10H14.6533C14.2927 10 14 10.224 14 10.5C14 10.776 14.2927 11 14.6533 11Z" fill="white"/>
<path d="M23.3448 15H5.65517C5.29352 15 5 15.224 5 15.5C5 15.776 5.29352 16 5.65517 16H23.3448C23.7065 16 24 15.776 24 15.5C24 15.224 23.7065 15 23.3448 15Z" fill="white"/>
<path d="M23.3448 20H5.65517C5.29352 20 5 20.224 5 20.5C5 20.776 5.29352 21 5.65517 21H23.3448C23.7065 21 24 20.776 24 20.5C24 20.224 23.7065 20 23.3448 20Z" fill="white"/>
<path d="M23.3448 26H5.65517C5.29352 26 5 26.224 5 26.5C5 26.776 5.29352 27 5.65517 27H23.3448C23.7065 27 24 26.776 24 26.5C24 26.224 23.7065 26 23.3448 26Z" fill="white"/>
<path d="M17.3333 31H5.66667C5.29867 31 5 31.224 5 31.5C5 31.776 5.29867 32 5.66667 32H17.3333C17.7013 32 18 31.776 18 31.5C18 31.224 17.7013 31 17.3333 31Z" fill="white"/>
<path d="M11.3437 13C11.706 13 12 12.7159 12 12.3658V4.63425C12 4.28414 11.706 4 11.3437 4H4.65628C4.29401 4 4 4.28414 4 4.63425V12.3658C4 12.7159 4.29401 13 4.65628 13H11.3437ZM5.31255 5.2685H10.687V11.7315H5.31255V5.2685Z" fill="white"/>
<path d="M26.2543 0H1.7457C0.783268 0 0 0.789524 0 1.76061V37.2394C0 38.21 0.782838 39 1.7457 39H20.4449H20.4453C20.5145 39 20.5802 38.9861 20.6425 38.9653C20.6524 38.9623 20.6619 38.9601 20.6713 38.9562C20.7349 38.932 20.7925 38.8973 20.8445 38.8553C20.8492 38.8514 20.8548 38.8505 20.8595 38.8466L27.7706 32.9689C27.7774 32.9633 27.7822 32.9564 27.7886 32.9503C27.8058 32.9347 27.8213 32.9178 27.8367 32.9005C27.8501 32.8853 27.8629 32.8701 27.875 32.8541C27.8874 32.8368 27.8982 32.819 27.9089 32.8004C27.9197 32.7822 27.93 32.7644 27.9386 32.7453C27.9472 32.7263 27.954 32.7068 27.9613 32.6873C27.9682 32.6673 27.9751 32.6474 27.9798 32.6266C27.9845 32.6071 27.9875 32.5867 27.9905 32.5668C27.994 32.5443 27.9966 32.5217 27.9974 32.4988C27.9979 32.4897 28 32.4814 28 32.4728V1.76061C27.9996 0.789524 27.2167 0 26.2543 0ZM1.28941 37.2394V1.76061C1.28941 1.50668 1.49435 1.29999 1.7457 1.29999H26.2539C26.5056 1.29999 26.7106 1.50668 26.7106 1.76061V31.8223H20.4453C20.0896 31.8223 19.8008 32.1135 19.8008 32.4723V37.6996H1.7457C1.49435 37.6996 1.28941 37.4929 1.28941 37.2394Z" fill="white"/>
</svg>
